<svg xmlns="http://www.w3.org/2000/svg" viewBox="0 0 1600 900" font-family="Helvetica, Arial, sans-serif">

<style>
  .edge { stroke: #000000; stroke-opacity: 0.32853082047199167; stroke-width: 0.8423867191589529; }
  .node { stroke: #dedddc; stroke-width: 2; cursor: pointer; }
  .node:hover { stroke: #000000; }
  .tooltip { opacity: 0; pointer-events: none; transition: opacity 0.12s ease; }
  .tooltip rect { fill: #12121f; stroke: #ffffff; stroke-opacity: 0.25; }
  .tooltip text { fill: #ffffff; font-size: 22px; font-weight: 600; }
  #n-tt0050598:hover ~ #t-tt0050598 { opacity: 1; } #n-tt0014624:hover ~ #t-tt0014624 { opacity: 1; } #n-tt0016630:hover ~ #t-tt0016630 { opacity: 1; } #n-tt0021749:hover ~ #t-tt0021749 { opacity: 1; } #n-tt0013075:hover ~ #t-tt0013075 { opacity: 1; } #n-tt0020876:hover ~ #t-tt0020876 { opacity: 1; } #n-tt0014945:hover ~ #t-tt0014945 { opacity: 1; } #n-tt0015863:hover ~ #t-tt0015863 { opacity: 1; } #n-tt0013201:hover ~ #t-tt0013201 { opacity: 1; } #n-tt0044837:hover ~ #t-tt0044837 { opacity: 1; } #n-tt0027977:hover ~ #t-tt0027977 { opacity: 1; } #n-tt0039631:hover ~ #t-tt0039631 { opacity: 1; } #n-tt0023241:hover ~ #t-tt0023241 { opacity: 1; } #n-tt0014429:hover ~ #t-tt0014429 { opacity: 1; } #n-tt0019412:hover ~ #t-tt0019412 { opacity: 1; } #n-tt0019421:hover ~ #t-tt0019421 { opacity: 1; } #n-tt0015864:hover ~ #t-tt0015864 { opacity: 1; } #n-tt0024961:hover ~ #t-tt0024961 { opacity: 1; } #n-tt0018773:hover ~ #t-tt0018773 { opacity: 1; } #n-tt0015841:hover ~ #t-tt0015841 { opacity: 1; } #n-tt0017925:hover ~ #t-tt0017925 { opacity: 1; } #n-tt0032553:hover ~ #t-tt0032553 { opacity: 1; } #n-tt0012349:hover ~ #t-tt0012349 { opacity: 1; } #n-tt0018051:hover ~ #t-tt0018051 { opacity: 1; } #n-tt0027969:hover ~ #t-tt0027969 { opacity: 1; } #n-tt0020572:hover ~ #t-tt0020572 { opacity: 1; } #n-tt0014611:hover ~ #t-tt0014611 { opacity: 1; }
</style>

<rect x="0" y="0" width="1600" height="900" fill="#dedddc"/>
<g>
<line class="edge" x1="708.9" y1="223.7" x2="1232.2" y2="523.2"/>
<line class="edge" x1="708.9" y1="223.7" x2="1223.8" y2="365.2"/>
<line class="edge" x1="708.9" y1="223.7" x2="344.6" y2="456.2"/>
<line class="edge" x1="708.9" y1="223.7" x2="733.0" y2="678.5"/>
<line class="edge" x1="708.9" y1="223.7" x2="459.0" y2="603.2"/>
<line class="edge" x1="708.9" y1="223.7" x2="1038.3" y2="646.9"/>
<line class="edge" x1="708.9" y1="223.7" x2="443.2" y2="306.3"/>
<line class="edge" x1="708.9" y1="223.7" x2="1017.1" y2="246.9"/>
<line class="edge" x1="288.5" y1="220.2" x2="886.3" y2="513.4"/>
<line class="edge" x1="288.5" y1="220.2" x2="1223.8" y2="365.2"/>
<line class="edge" x1="288.5" y1="220.2" x2="1038.3" y2="646.9"/>
<line class="edge" x1="288.5" y1="220.2" x2="459.0" y2="603.2"/>
<line class="edge" x1="288.5" y1="220.2" x2="1017.1" y2="246.9"/>
<line class="edge" x1="1069.3" y1="810.0" x2="1510.0" y2="313.5"/>
<line class="edge" x1="1069.3" y1="810.0" x2="934.5" y2="485.8"/>
<line class="edge" x1="1069.3" y1="810.0" x2="344.6" y2="456.2"/>
<line class="edge" x1="1069.3" y1="810.0" x2="530.7" y2="90.0"/>
<line class="edge" x1="1069.3" y1="810.0" x2="90.0" y2="586.5"/>
<line class="edge" x1="443.2" y1="306.3" x2="344.6" y2="456.2"/>
<line class="edge" x1="443.2" y1="306.3" x2="733.0" y2="678.5"/>
<line class="edge" x1="443.2" y1="306.3" x2="459.0" y2="603.2"/>
<line class="edge" x1="443.2" y1="306.3" x2="1232.2" y2="523.2"/>
<line class="edge" x1="443.2" y1="306.3" x2="1223.8" y2="365.2"/>
<line class="edge" x1="443.2" y1="306.3" x2="1038.3" y2="646.9"/>
<line class="edge" x1="443.2" y1="306.3" x2="1017.1" y2="246.9"/>
<line class="edge" x1="934.5" y1="414.2" x2="686.3" y2="501.1"/>
<line class="edge" x1="934.5" y1="414.2" x2="652.5" y2="468.4"/>
<line class="edge" x1="934.5" y1="414.2" x2="934.5" y2="485.8"/>
<line class="edge" x1="934.5" y1="414.2" x2="818.3" y2="526.4"/>
<line class="edge" x1="934.5" y1="414.2" x2="818.3" y2="373.6"/>
<line class="edge" x1="934.5" y1="414.2" x2="951.9" y2="450.0"/>
<line class="edge" x1="934.5" y1="414.2" x2="686.3" y2="398.9"/>
<line class="edge" x1="934.5" y1="414.2" x2="886.3" y2="513.4"/>
<line class="edge" x1="934.5" y1="414.2" x2="886.3" y2="386.6"/>
<line class="edge" x1="934.5" y1="414.2" x2="746.1" y2="378.0"/>
<line class="edge" x1="934.5" y1="414.2" x2="746.1" y2="522.0"/>
<line class="edge" x1="934.5" y1="414.2" x2="652.5" y2="431.6"/>
<line class="edge" x1="746.1" y1="522.0" x2="886.3" y2="386.6"/>
<line class="edge" x1="746.1" y1="522.0" x2="934.5" y2="485.8"/>
<line class="edge" x1="746.1" y1="522.0" x2="652.5" y2="431.6"/>
<line class="edge" x1="746.1" y1="522.0" x2="686.3" y2="398.9"/>
<line class="edge" x1="746.1" y1="522.0" x2="652.5" y2="468.4"/>
<line class="edge" x1="746.1" y1="522.0" x2="886.3" y2="513.4"/>
<line class="edge" x1="746.1" y1="522.0" x2="686.3" y2="501.1"/>
<line class="edge" x1="746.1" y1="522.0" x2="746.1" y2="378.0"/>
<line class="edge" x1="746.1" y1="522.0" x2="818.3" y2="526.4"/>
<line class="edge" x1="746.1" y1="522.0" x2="951.9" y2="450.0"/>
<line class="edge" x1="746.1" y1="522.0" x2="818.3" y2="373.6"/>
<line class="edge" x1="652.5" y1="431.6" x2="746.1" y2="378.0"/>
<line class="edge" x1="652.5" y1="431.6" x2="951.9" y2="450.0"/>
<line class="edge" x1="652.5" y1="431.6" x2="934.5" y2="485.8"/>
<line class="edge" x1="652.5" y1="431.6" x2="818.3" y2="526.4"/>
<line class="edge" x1="652.5" y1="431.6" x2="686.3" y2="501.1"/>
<line class="edge" x1="652.5" y1="431.6" x2="886.3" y2="386.6"/>
<line class="edge" x1="652.5" y1="431.6" x2="652.5" y2="468.4"/>
<line class="edge" x1="652.5" y1="431.6" x2="818.3" y2="373.6"/>
<line class="edge" x1="652.5" y1="431.6" x2="886.3" y2="513.4"/>
<line class="edge" x1="652.5" y1="431.6" x2="686.3" y2="398.9"/>
<line class="edge" x1="1510.0" y1="313.5" x2="90.0" y2="586.5"/>
<line class="edge" x1="1510.0" y1="313.5" x2="344.6" y2="456.2"/>
<line class="edge" x1="1510.0" y1="313.5" x2="530.7" y2="90.0"/>
<line class="edge" x1="818.3" y1="373.6" x2="886.3" y2="386.6"/>
<line class="edge" x1="818.3" y1="373.6" x2="686.3" y2="398.9"/>
<line class="edge" x1="818.3" y1="373.6" x2="886.3" y2="513.4"/>
<line class="edge" x1="818.3" y1="373.6" x2="951.9" y2="450.0"/>
<line class="edge" x1="818.3" y1="373.6" x2="934.5" y2="485.8"/>
<line class="edge" x1="818.3" y1="373.6" x2="818.3" y2="526.4"/>
<line class="edge" x1="818.3" y1="373.6" x2="686.3" y2="501.1"/>
<line class="edge" x1="818.3" y1="373.6" x2="652.5" y2="468.4"/>
<line class="edge" x1="818.3" y1="373.6" x2="746.1" y2="378.0"/>
<line class="edge" x1="344.6" y1="456.2" x2="530.7" y2="90.0"/>
<line class="edge" x1="344.6" y1="456.2" x2="1017.1" y2="246.9"/>
<line class="edge" x1="344.6" y1="456.2" x2="1038.3" y2="646.9"/>
<line class="edge" x1="344.6" y1="456.2" x2="90.0" y2="586.5"/>
<line class="edge" x1="344.6" y1="456.2" x2="1232.2" y2="523.2"/>
<line class="edge" x1="344.6" y1="456.2" x2="459.0" y2="603.2"/>
<line class="edge" x1="344.6" y1="456.2" x2="733.0" y2="678.5"/>
<line class="edge" x1="344.6" y1="456.2" x2="1223.8" y2="365.2"/>
<line class="edge" x1="459.0" y1="603.2" x2="1017.1" y2="246.9"/>
<line class="edge" x1="459.0" y1="603.2" x2="1038.3" y2="646.9"/>
<line class="edge" x1="459.0" y1="603.2" x2="1232.2" y2="523.2"/>
<line class="edge" x1="459.0" y1="603.2" x2="1223.8" y2="365.2"/>
<line class="edge" x1="459.0" y1="603.2" x2="733.0" y2="678.5"/>
<line class="edge" x1="1232.2" y1="523.2" x2="1223.8" y2="365.2"/>
<line class="edge" x1="1232.2" y1="523.2" x2="1038.3" y2="646.9"/>
<line class="edge" x1="1232.2" y1="523.2" x2="1017.1" y2="246.9"/>
<line class="edge" x1="1232.2" y1="523.2" x2="733.0" y2="678.5"/>
<line class="edge" x1="652.5" y1="468.4" x2="746.1" y2="378.0"/>
<line class="edge" x1="652.5" y1="468.4" x2="886.3" y2="513.4"/>
<line class="edge" x1="652.5" y1="468.4" x2="686.3" y2="398.9"/>
<line class="edge" x1="652.5" y1="468.4" x2="818.3" y2="526.4"/>
<line class="edge" x1="652.5" y1="468.4" x2="686.3" y2="501.1"/>
<line class="edge" x1="652.5" y1="468.4" x2="934.5" y2="485.8"/>
<line class="edge" x1="652.5" y1="468.4" x2="886.3" y2="386.6"/>
<line class="edge" x1="652.5" y1="468.4" x2="951.9" y2="450.0"/>
<line class="edge" x1="686.3" y1="501.1" x2="934.5" y2="485.8"/>
<line class="edge" x1="686.3" y1="501.1" x2="818.3" y2="526.4"/>
<line class="edge" x1="686.3" y1="501.1" x2="886.3" y2="386.6"/>
<line class="edge" x1="686.3" y1="501.1" x2="746.1" y2="378.0"/>
<line class="edge" x1="686.3" y1="501.1" x2="686.3" y2="398.9"/>
<line class="edge" x1="686.3" y1="501.1" x2="886.3" y2="513.4"/>
<line class="edge" x1="686.3" y1="501.1" x2="951.9" y2="450.0"/>
<line class="edge" x1="951.9" y1="450.0" x2="886.3" y2="386.6"/>
<line class="edge" x1="951.9" y1="450.0" x2="686.3" y2="398.9"/>
<line class="edge" x1="951.9" y1="450.0" x2="886.3" y2="513.4"/>
<line class="edge" x1="951.9" y1="450.0" x2="746.1" y2="378.0"/>
<line class="edge" x1="951.9" y1="450.0" x2="934.5" y2="485.8"/>
<line class="edge" x1="951.9" y1="450.0" x2="818.3" y2="526.4"/>
<line class="edge" x1="530.7" y1="90.0" x2="90.0" y2="586.5"/>
<line class="edge" x1="1017.1" y1="246.9" x2="1223.8" y2="365.2"/>
<line class="edge" x1="1017.1" y1="246.9" x2="733.0" y2="678.5"/>
<line class="edge" x1="1017.1" y1="246.9" x2="1038.3" y2="646.9"/>
<line class="edge" x1="818.3" y1="526.4" x2="886.3" y2="513.4"/>
<line class="edge" x1="818.3" y1="526.4" x2="686.3" y2="398.9"/>
<line class="edge" x1="818.3" y1="526.4" x2="934.5" y2="485.8"/>
<line class="edge" x1="818.3" y1="526.4" x2="886.3" y2="386.6"/>
<line class="edge" x1="818.3" y1="526.4" x2="746.1" y2="378.0"/>
<line class="edge" x1="1038.3" y1="646.9" x2="1223.8" y2="365.2"/>
<line class="edge" x1="1038.3" y1="646.9" x2="733.0" y2="678.5"/>
<line class="edge" x1="746.1" y1="378.0" x2="886.3" y2="386.6"/>
<line class="edge" x1="746.1" y1="378.0" x2="686.3" y2="398.9"/>
<line class="edge" x1="746.1" y1="378.0" x2="886.3" y2="513.4"/>
<line class="edge" x1="746.1" y1="378.0" x2="934.5" y2="485.8"/>
<line class="edge" x1="733.0" y1="678.5" x2="1223.8" y2="365.2"/>
<line class="edge" x1="934.5" y1="485.8" x2="686.3" y2="398.9"/>
<line class="edge" x1="934.5" y1="485.8" x2="886.3" y2="513.4"/>
<line class="edge" x1="934.5" y1="485.8" x2="886.3" y2="386.6"/>
<line class="edge" x1="886.3" y1="513.4" x2="886.3" y2="386.6"/>
<line class="edge" x1="886.3" y1="513.4" x2="686.3" y2="398.9"/>
<line class="edge" x1="886.3" y1="386.6" x2="686.3" y2="398.9"/>
</g>
<a id="n-tt0050598" href="https://www.criterionchannel.com/a-king-in-new-york" target="_blank" rel="noopener"><polygon class="node" points="719.9,230.0 708.9,236.4 697.9,230.0 697.9,217.3 708.9,211.0 719.9,217.3" fill="#5B4740"/></a>
<a id="n-tt0014624" href="https://www.criterion.com/films/27582-a-woman-of-paris" target="_blank" rel="noopener"><polygon class="node" points="299.5,226.6 288.5,232.9 277.5,226.6 277.5,213.9 288.5,207.5 299.5,213.9" fill="#5B4740"/></a>
<polygon id="n-tt0016630" class="node" points="1080.3,816.3 1069.3,822.7 1058.3,816.3 1058.3,803.7 1069.3,797.3 1080.3,803.7" fill="#5B4740"/>
<a id="n-tt0021749" href="https://www.criterion.com/films/27558-city-lights" target="_blank" rel="noopener"><polygon class="node" points="454.2,312.7 443.2,319.0 432.3,312.7 432.3,300.0 443.2,293.6 454.2,300.0" fill="#5B4740"/></a>
<a id="n-tt0013075" href="https://www.criterionchannel.com/dr-jack" target="_blank" rel="noopener"><polygon class="node" points="945.5,420.6 934.5,426.9 923.5,420.6 923.5,407.9 934.5,401.5 945.5,407.9" fill="#5B4740"/></a>
<a id="n-tt0020876" href="https://www.criterionchannel.com/feet-first" target="_blank" rel="noopener"><polygon class="node" points="757.1,528.3 746.1,534.7 735.2,528.3 735.2,515.7 746.1,509.3 757.1,515.7" fill="#5B4740"/></a>
<a id="n-tt0014945" href="https://www.criterionchannel.com/girl-shy" target="_blank" rel="noopener"><polygon class="node" points="663.5,437.9 652.5,444.3 641.5,437.9 641.5,425.2 652.5,418.9 663.5,425.2" fill="#5B4740"/></a>
<polygon id="n-tt0015863" class="node" points="1521.0,319.8 1510.0,326.2 1499.0,319.8 1499.0,307.1 1510.0,300.8 1521.0,307.1" fill="#5B4740"/>
<a id="n-tt0013201" href="https://www.criterionchannel.com/grandma-s-boy" target="_blank" rel="noopener"><polygon class="node" points="829.3,379.9 818.3,386.3 807.3,379.9 807.3,367.2 818.3,360.9 829.3,367.2" fill="#5B4740"/></a>
<a id="n-tt0044837" href="https://www.criterion.com/films/27557-limelight" target="_blank" rel="noopener"><polygon class="node" points="355.6,462.6 344.6,468.9 333.6,462.6 333.6,449.9 344.6,443.5 355.6,449.9" fill="#5B4740"/></a>
<a id="n-tt0027977" href="https://www.criterion.com/films/27526-modern-times" target="_blank" rel="noopener"><polygon class="node" points="470.0,609.5 459.0,615.9 448.0,609.5 448.0,596.8 459.0,590.5 470.0,596.8" fill="#5B4740"/></a>
<a id="n-tt0039631" href="https://www.criterion.com/films/27574-monsieur-verdoux" target="_blank" rel="noopener"><polygon class="node" points="1243.2,529.5 1232.2,535.8 1221.2,529.5 1221.2,516.8 1232.2,510.5 1243.2,516.8" fill="#5B4740"/></a>
<a id="n-tt0023241" href="https://www.criterionchannel.com/movie-crazy" target="_blank" rel="noopener"><polygon class="node" points="663.5,474.8 652.5,481.1 641.5,474.8 641.5,462.1 652.5,455.7 663.5,462.1" fill="#5B4740"/></a>
<a id="n-tt0014429" href="https://www.criterion.com/films/28446-safety-last" target="_blank" rel="noopener"><polygon class="node" points="697.3,507.4 686.3,513.8 675.3,507.4 675.3,494.7 686.3,488.4 697.3,494.7" fill="#5B4740"/></a>
<a id="n-tt0019412" href="https://www.criterion.com/films/28497-speedy" target="_blank" rel="noopener"><polygon class="node" points="962.9,456.3 951.9,462.7 940.9,456.3 940.9,443.7 951.9,437.3 962.9,443.7" fill="#5B4740"/></a>
<polygon id="n-tt0019421" class="node" points="541.7,96.3 530.7,102.7 519.7,96.3 519.7,83.7 530.7,77.3 541.7,83.7" fill="#5B4740"/>
<a id="n-tt0015864" href="https://www.criterion.com/films/27565-the-gold-rush" target="_blank" rel="noopener"><polygon class="node" points="1028.1,253.3 1017.1,259.6 1006.1,253.3 1006.1,240.6 1017.1,234.2 1028.1,240.6" fill="#5B4740"/></a>
<a id="n-tt0024961" href="https://www.criterionchannel.com/the-cat-s-paw" target="_blank" rel="noopener"><polygon class="node" points="829.3,532.8 818.3,539.1 807.3,532.8 807.3,520.1 818.3,513.7 829.3,520.1" fill="#5B4740"/></a>
<a id="n-tt0018773" href="https://www.criterion.com/films/27563-the-circus" target="_blank" rel="noopener"><polygon class="node" points="1049.3,653.2 1038.3,659.6 1027.3,653.2 1027.3,640.5 1038.3,634.2 1049.3,640.5" fill="#5B4740"/></a>
<a id="n-tt0015841" href="https://www.criterion.com/films/28510-the-freshman" target="_blank" rel="noopener"><polygon class="node" points="757.1,384.3 746.1,390.7 735.2,384.3 735.2,371.7 746.1,365.3 757.1,371.7" fill="#5B4740"/></a>
<polygon id="n-tt0017925" class="node" points="101.0,592.9 90.0,599.2 79.0,592.9 79.0,580.2 90.0,573.8 101.0,580.2" fill="#5B4740"/>
<a id="n-tt0032553" href="https://www.criterion.com/films/27605-the-great-dictator" target="_blank" rel="noopener"><polygon class="node" points="744.0,684.8 733.0,691.2 722.0,684.8 722.0,672.1 733.0,665.8 744.0,672.1" fill="#5B4740"/></a>
<a id="n-tt0012349" href="https://www.criterion.com/films/27566-the-kid" target="_blank" rel="noopener"><polygon class="node" points="1234.8,371.5 1223.8,377.9 1212.8,371.5 1212.8,358.8 1223.8,352.5 1234.8,358.8" fill="#5B4740"/></a>
<a id="n-tt0018051" href="https://www.criterion.com/films/28499-the-kid-brother" target="_blank" rel="noopener"><polygon class="node" points="945.5,492.1 934.5,498.5 923.5,492.1 923.5,479.4 934.5,473.1 945.5,479.4" fill="#5B4740"/></a>
<a id="n-tt0027969" href="https://www.criterion.com/films/832-the-milky-way" target="_blank" rel="noopener"><polygon class="node" points="897.3,519.7 886.3,526.1 875.3,519.7 875.3,507.0 886.3,500.7 897.3,507.0" fill="#5B4740"/></a>
<a id="n-tt0020572" href="https://www.criterionchannel.com/welcome-danger" target="_blank" rel="noopener"><polygon class="node" points="897.3,393.0 886.3,399.3 875.3,393.0 875.3,380.3 886.3,373.9 897.3,380.3" fill="#5B4740"/></a>
<a id="n-tt0014611" href="https://www.criterionchannel.com/why-worry" target="_blank" rel="noopener"><polygon class="node" points="697.3,405.3 686.3,411.6 675.3,405.3 675.3,392.6 686.3,386.2 697.3,392.6" fill="#5B4740"/></a>
<g id="t-tt0050598" class="tooltip">
  <rect x="560.1" y="155.0" width="297.5" height="46.0" rx="6"/>
  <text x="708.9" y="185.0" text-anchor="middle">A King in New York (1957)</text>
</g>
<g id="t-tt0014624" class="tooltip">
  <rect x="151.6" y="151.5" width="273.7" height="46.0" rx="6"/>
  <text x="288.5" y="181.5" text-anchor="middle">A Woman of Paris (1923)</text>
</g>
<g id="t-tt0016630" class="tooltip">
  <rect x="938.4" y="741.3" width="261.8" height="46.0" rx="6"/>
  <text x="1069.3" y="771.3" text-anchor="middle">Battling Butler (1926)</text>
</g>
<g id="t-tt0021749" class="tooltip">
  <rect x="336.1" y="237.6" width="214.2" height="46.0" rx="6"/>
  <text x="443.2" y="267.6" text-anchor="middle">City Lights (1931)</text>
</g>
<g id="t-tt0013075" class="tooltip">
  <rect x="845.2" y="345.5" width="178.5" height="46.0" rx="6"/>
  <text x="934.5" y="375.5" text-anchor="middle">Dr. Jack (1922)</text>
</g>
<g id="t-tt0020876" class="tooltip">
  <rect x="645.0" y="453.3" width="202.3" height="46.0" rx="6"/>
  <text x="746.1" y="483.3" text-anchor="middle">Feet First (1930)</text>
</g>
<g id="t-tt0014945" class="tooltip">
  <rect x="563.3" y="362.9" width="178.5" height="46.0" rx="6"/>
  <text x="652.5" y="392.9" text-anchor="middle">Girl Shy (1924)</text>
</g>
<g id="t-tt0015863" class="tooltip">
  <rect x="1425.4" y="244.8" width="166.6" height="46.0" rx="6"/>
  <text x="1508.7" y="274.8" text-anchor="middle">Go West (1925)</text>
</g>
<g id="t-tt0013201" class="tooltip">
  <rect x="699.3" y="304.9" width="238.0" height="46.0" rx="6"/>
  <text x="818.3" y="334.9" text-anchor="middle">Grandma's Boy (1922)</text>
</g>
<g id="t-tt0044837" class="tooltip">
  <rect x="249.4" y="387.5" width="190.4" height="46.0" rx="6"/>
  <text x="344.6" y="417.5" text-anchor="middle">Limelight (1952)</text>
</g>
<g id="t-tt0027977" class="tooltip">
  <rect x="345.9" y="534.5" width="226.1" height="46.0" rx="6"/>
  <text x="459.0" y="564.5" text-anchor="middle">Modern Times (1936)</text>
</g>
<g id="t-tt0039631" class="tooltip">
  <rect x="1095.3" y="454.5" width="273.7" height="46.0" rx="6"/>
  <text x="1232.2" y="484.5" text-anchor="middle">Monsieur Verdoux (1947)</text>
</g>
<g id="t-tt0023241" class="tooltip">
  <rect x="545.4" y="399.7" width="214.2" height="46.0" rx="6"/>
  <text x="652.5" y="429.7" text-anchor="middle">Movie Crazy (1932)</text>
</g>
<g id="t-tt0014429" class="tooltip">
  <rect x="573.3" y="432.4" width="226.1" height="46.0" rx="6"/>
  <text x="686.3" y="462.4" text-anchor="middle">Safety Last! (1923)</text>
</g>
<g id="t-tt0019412" class="tooltip">
  <rect x="874.5" y="381.3" width="154.7" height="46.0" rx="6"/>
  <text x="951.9" y="411.3" text-anchor="middle">Speedy (1928)</text>
</g>
<g id="t-tt0019421" class="tooltip">
  <rect x="376.0" y="21.3" width="309.4" height="46.0" rx="6"/>
  <text x="530.7" y="51.3" text-anchor="middle">Steamboat Bill, Jr. (1928)</text>
</g>
<g id="t-tt0015864" class="tooltip">
  <rect x="814.8" y="178.2" width="404.6" height="46.0" rx="6"/>
  <text x="1017.1" y="208.2" text-anchor="middle">THE GOLD RUSH: 1925 Version (1925)</text>
</g>
<g id="t-tt0024961" class="tooltip">
  <rect x="699.3" y="457.7" width="238.0" height="46.0" rx="6"/>
  <text x="818.3" y="487.7" text-anchor="middle">The Cat’s Paw (1934)</text>
</g>
<g id="t-tt0018773" class="tooltip">
  <rect x="937.2" y="578.2" width="202.3" height="46.0" rx="6"/>
  <text x="1038.3" y="608.2" text-anchor="middle">The Circus (1928)</text>
</g>
<g id="t-tt0015841" class="tooltip">
  <rect x="633.1" y="309.3" width="226.1" height="46.0" rx="6"/>
  <text x="746.1" y="339.3" text-anchor="middle">The Freshman (1925)</text>
</g>
<g id="t-tt0017925" class="tooltip">
  <rect x="8.0" y="517.8" width="214.2" height="46.0" rx="6"/>
  <text x="115.1" y="547.8" text-anchor="middle">The General (1926)</text>
</g>
<g id="t-tt0032553" class="tooltip">
  <rect x="584.2" y="609.8" width="297.5" height="46.0" rx="6"/>
  <text x="733.0" y="639.8" text-anchor="middle">The Great Dictator (1940)</text>
</g>
<g id="t-tt0012349" class="tooltip">
  <rect x="1140.5" y="296.5" width="166.6" height="46.0" rx="6"/>
  <text x="1223.8" y="326.5" text-anchor="middle">The Kid (1921)</text>
</g>
<g id="t-tt0018051" class="tooltip">
  <rect x="803.6" y="417.1" width="261.8" height="46.0" rx="6"/>
  <text x="934.5" y="447.1" text-anchor="middle">The Kid Brother (1927)</text>
</g>
<g id="t-tt0027969" class="tooltip">
  <rect x="767.3" y="444.7" width="238.0" height="46.0" rx="6"/>
  <text x="886.3" y="474.7" text-anchor="middle">The Milky Way (1936)</text>
</g>
<g id="t-tt0020572" class="tooltip">
  <rect x="761.3" y="317.9" width="249.9" height="46.0" rx="6"/>
  <text x="886.3" y="347.9" text-anchor="middle">Welcome Danger (1929)</text>
</g>
<g id="t-tt0014611" class="tooltip">
  <rect x="585.2" y="330.2" width="202.3" height="46.0" rx="6"/>
  <text x="686.3" y="360.2" text-anchor="middle">Why Worry? (1923)</text>
</g>
</svg>